<svg width="532" height="400" viewBox="0 0 532 400" fill="none" xmlns="http://www.w3.org/2000/svg">
<g clip-path="url(#clip0_166_189)">
<path d="M91.1591 378.92C91.1591 378.92 24.9123 331.738 5.84606 251.445C-13.2202 171.151 15.8886 73.7682 71.0862 24.6339C126.284 -24.5004 225.666 8.49026 269.827 49.7286L313.999 90.8821C313.999 90.8821 356.158 113.927 411.356 111.962C466.554 109.997 515.748 185.184 528.81 244.41C541.873 303.636 510.738 381.928 510.738 381.928L91.1591 378.92Z" fill="#FFF6C9"/>
<g style="mix-blend-mode:multiply">
<path d="M61.0558 390.964C61.0558 390.964 14.882 365.869 2.83821 307.65C-9.20557 249.431 42.9841 196.234 48.0054 167.124C53.0267 138.015 41.9411 101.871 88.1513 73.7316C134.362 45.5925 216.63 55.708 247.752 48.6733C278.875 41.6385 315.006 -6.52549 377.202 4.51183C439.398 15.5492 499.701 48.6733 502.661 120.95C505.62 193.226 482.624 195.276 505.766 234.379C528.907 273.483 537.882 300.628 526.845 340.774C515.808 380.921 492.715 391.971 492.715 391.971L61.0558 390.964Z" fill="#FFFBE8"/>
</g>
<g style="mix-blend-mode:multiply">
<path d="M157.467 377.913C154.592 374.905 112.469 290.585 159.371 213.299C206.272 136.014 324.054 145.038 370.968 175.154C417.881 205.27 440.853 244.41 445.644 285.527C450.435 326.644 418.827 390.927 418.827 390.927L157.467 377.913Z" fill="#FFF2B5"/>
</g>
<path d="M487.767 196.816H433.649C430.299 196.816 427.584 199.531 427.584 202.881V229.904C427.584 233.253 430.299 235.968 433.649 235.968H487.767C491.116 235.968 493.831 233.253 493.831 229.904V202.881C493.831 199.531 491.116 196.816 487.767 196.816Z" fill="#FBD107"/>
<path d="M460.708 251.275L469.295 230.947H452.133L460.708 251.275Z" fill="#FBD107"/>
<path d="M460.514 209.673H476.002V211.941L483.595 207.562L476.002 203.172V205.44H460.514V209.673Z" fill="white"/>
<path d="M483.595 218.575H468.106V216.307L460.514 220.686L468.106 225.064V222.796H483.595V218.575Z" fill="white"/>
<path d="M451.005 222.566L450.265 222.833C448.852 221.176 447.676 219.331 446.772 217.35C446.017 215.314 445.607 213.166 445.559 210.995L446.093 210.776L442.818 202.929C442.18 203.427 441.641 204.04 441.229 204.736C439.373 207.865 439.567 212.681 441.423 217.375C443.279 222.068 445.28 226.265 448.919 228.897C449.67 229.512 450.536 229.97 451.467 230.245C452.399 230.52 453.375 230.606 454.34 230.498L451.005 222.566Z" fill="white"/>
<path d="M453.345 221.644L452.327 222.008L455.686 230.037C456.038 229.92 456.378 229.774 456.705 229.6C457.121 229.371 457.438 228.999 457.599 228.552C457.76 228.106 457.752 227.616 457.578 227.175L455.832 222.76C455.645 222.286 455.28 221.905 454.816 221.696C454.351 221.488 453.824 221.469 453.345 221.644Z" fill="white"/>
<path d="M445.365 201.558C444.906 201.724 444.464 201.931 444.043 202.177L447.39 210.182L448.518 209.709C448.987 209.51 449.36 209.137 449.559 208.669C449.758 208.201 449.768 207.674 449.586 207.198L447.827 202.686C447.642 202.216 447.282 201.836 446.823 201.626C446.364 201.416 445.842 201.392 445.365 201.558V201.558Z" fill="white"/>
<path d="M141.809 364.365V274.029C141.809 274.029 140.814 249.686 153.61 242.651C166.405 235.616 220.317 239.388 220.317 239.388V364.316L141.809 364.365Z" fill="#FBD107"/>
<path d="M237.213 154.826C237.213 154.826 233.95 182.176 232.689 184.432L231.476 186.701L225.205 190.958C225.205 190.958 237.249 208.023 252.058 210.789C266.867 213.554 265.606 204.724 265.606 204.724L263.35 199.957L266.358 173.856C266.358 173.856 239.469 161.606 237.213 154.826Z" fill="#FF9D8C"/>
<path d="M217.382 193.226L227.17 188.957C227.17 188.957 233.441 199.242 247.995 205.27C262.55 211.298 262.804 207.781 263.556 205.27C263.969 203.523 263.885 201.695 263.314 199.994L264.381 191.213L270.203 193.153L290.409 356.59L238.462 359.101L217.382 193.226Z" fill="white"/>
<path d="M265.315 191.382C265.315 191.382 268.832 199.497 272.095 218.563C275.357 237.63 278.365 269.759 279.117 291.846C279.869 313.933 280.33 364.365 280.33 364.365H345.825C346.589 364.365 351.101 339.525 351.101 339.525C351.101 339.525 322.489 315.013 320.985 310.998C319.979 308.317 320.488 258.722 316.219 235.883C311.949 213.045 306.431 208.448 294.884 202.759C282.998 196.877 265.315 191.382 265.315 191.382Z" fill="#CEA809"/>
<path d="M299.445 335.607C299.284 335.607 299.13 335.544 299.016 335.43C298.902 335.316 298.839 335.162 298.839 335.001C298.839 333.206 298.523 307.723 298.208 283.065C297.892 258.407 297.577 232.912 297.577 231.117C297.577 230.956 297.641 230.802 297.755 230.688C297.868 230.574 298.023 230.51 298.184 230.51C298.344 230.51 298.499 230.574 298.612 230.688C298.726 230.802 298.79 230.956 298.79 231.117C298.79 232.912 299.117 258.395 299.421 283.053C299.724 307.711 300.051 333.206 300.051 335.001C300.051 335.162 299.988 335.316 299.874 335.43C299.76 335.544 299.606 335.607 299.445 335.607Z" fill="#DEDEDE"/>
<path d="M168.952 329.482L168.455 364.365H244.744C244.744 364.365 247.995 334.746 246.746 331.993C245.496 329.24 168.952 329.482 168.952 329.482Z" fill="#CEA809"/>
<g style="mix-blend-mode:multiply">
<path d="M253.853 183.68C257.097 186.126 260.697 188.061 264.526 189.417L266.321 173.892C266.321 173.892 246.151 164.662 239.311 157.785C240.742 165.596 244.259 175.942 253.853 183.68Z" fill="#8E9BBB"/>
</g>
<path d="M289.875 103.884C293.251 110.104 295.381 116.922 296.146 123.957C297.153 135.007 296.146 163.352 287.11 175.408C278.074 187.465 259.214 183.899 250.724 176.621C242.889 169.938 235.163 162.564 233.162 148.009C231.161 133.454 237.431 105.861 255.236 100.088C273.041 94.3143 289.875 103.884 289.875 103.884Z" fill="#FF9D8C"/>
<path d="M312.544 348.585C312.544 348.585 311.658 348.585 310.312 348.585H309.281L304.818 348.464H303.75C302.174 348.464 300.827 348.622 299.566 348.549C299.299 348.549 298.911 348.549 298.596 348.549C298.463 348.56 298.329 348.56 298.196 348.549C297.612 348.416 297.051 348.196 296.534 347.894C288.012 345.713 279.264 344.537 270.469 344.389C259.262 344.389 249.208 345.202 247.57 343.831C245.933 342.46 244.926 328.354 254.496 327.433L266.261 331.896C266.261 331.896 293.126 328.694 302.974 335.971C312.823 343.249 312.544 348.585 312.544 348.585Z" fill="#FF9D8C"/>
<path d="M299.578 348.464C299.311 348.464 298.923 348.464 298.608 348.464C298.3 347.978 297.955 347.516 297.577 347.081C294.545 343.989 287.219 341.987 284.563 341.344C284.446 341.316 284.346 341.243 284.282 341.141C284.219 341.039 284.198 340.916 284.223 340.799C284.237 340.74 284.263 340.684 284.299 340.635C284.335 340.586 284.38 340.545 284.432 340.513C284.484 340.481 284.541 340.46 284.601 340.451C284.661 340.442 284.722 340.445 284.781 340.459C288.65 341.393 296.91 343.782 299.19 347.736C299.214 347.846 299.408 348.222 299.578 348.464Z" fill="#223A7A"/>
<path d="M304.818 348.415C304.466 348.415 304.102 348.415 303.751 348.415C300.439 342.351 295.03 340.641 288.335 338.494L287.935 338.361C287.821 338.319 287.727 338.236 287.673 338.127C287.619 338.019 287.609 337.894 287.644 337.778C287.685 337.665 287.768 337.571 287.877 337.517C287.985 337.463 288.11 337.452 288.226 337.487L288.614 337.621C295.685 339.864 301.386 341.684 304.818 348.415Z" fill="#223A7A"/>
<path d="M310.312 348.549H309.281C307.457 345.28 304.959 342.437 301.952 340.208C298.945 337.979 295.498 336.415 291.84 335.62C291.78 335.609 291.723 335.587 291.672 335.555C291.621 335.523 291.576 335.48 291.541 335.431C291.506 335.381 291.482 335.325 291.468 335.266C291.455 335.207 291.454 335.146 291.464 335.086C291.488 334.967 291.557 334.863 291.657 334.795C291.756 334.727 291.879 334.701 291.998 334.722C301.046 336.408 308.359 343.807 310.312 348.549Z" fill="#223A7A"/>
<path d="M239.214 135.626C243.284 133.299 246.563 129.805 248.626 125.595C250.935 121.292 252.104 116.469 252.022 111.586C252.022 111.586 259.044 110.458 269.584 113.599C280.124 116.741 292.629 120.998 303.205 114.97C313.781 108.942 313.745 99.2873 308.602 95.2726C302.841 90.7727 291.416 93.5139 291.416 93.5139C291.416 93.5139 295.806 89.2566 293.417 86.7459C291.028 84.2352 282.38 87.4979 282.38 87.4979C282.38 87.4979 271.84 79.0926 251.888 80.0872C231.937 81.0817 222.404 95.03 221.276 110.579C220.148 126.129 225.787 141.702 225.787 141.702L239.214 135.626Z" fill="#223A7A"/>
<g style="mix-blend-mode:multiply">
<path d="M279.687 139.398C278.559 142.187 278.584 145.462 278.305 148.385C278.086 150.678 277.662 153.37 279.772 154.923C280.779 155.663 285.533 157.664 283.083 159.289C281.96 159.756 280.728 159.895 279.53 159.689L277.322 159.568C276.534 159.507 275.77 159.265 274.981 159.265C274.883 159.269 274.789 159.304 274.712 159.365C274.635 159.426 274.58 159.51 274.554 159.605C274.528 159.699 274.534 159.8 274.569 159.892C274.604 159.983 274.668 160.061 274.751 160.114C276.173 160.841 277.75 161.216 279.348 161.205C280.655 161.347 281.975 161.116 283.156 160.538C283.587 160.385 283.973 160.125 284.278 159.784C284.583 159.443 284.798 159.031 284.903 158.586C284.905 158.045 284.767 157.514 284.504 157.042C284.24 156.57 283.86 156.175 283.399 155.893C282.453 155.19 281.288 154.862 280.33 154.183C278.996 153.225 279.117 151.624 279.202 150.144C279.433 146.578 280.245 143.073 280.561 139.519C280.621 138.973 279.869 138.973 279.687 139.398V139.398Z" fill="#8E9BBB"/>
</g>
<path d="M289.948 147.742C289.572 149.865 288.032 151.381 286.516 151.09C285 150.799 284.09 148.883 284.43 146.772C284.769 144.662 286.346 143.133 287.862 143.425C289.378 143.716 290.324 145.632 289.948 147.742Z" fill="#223A7A"/>
<path d="M270.748 146.069C270.409 148.349 268.796 149.998 267.11 149.707C265.424 149.416 264.405 147.415 264.684 145.135C264.963 142.854 266.637 141.205 268.323 141.496C270.008 141.787 271.088 143.788 270.748 146.069Z" fill="#223A7A"/>
<path d="M285.485 139.022C286.659 139.111 287.837 139.139 289.014 139.107C289.305 139.107 289.584 139.107 289.863 139.192C290.142 139.276 289.487 139.131 289.766 139.192H289.948L290.397 139.289C290.652 139.349 290.894 139.446 291.137 139.495C291.369 139.563 291.61 139.595 291.852 139.592H292.24H291.998C292.159 139.613 292.322 139.613 292.483 139.592C292.807 139.496 293.082 139.278 293.249 138.984C293.416 138.69 293.463 138.343 293.381 138.015C293.328 137.827 293.242 137.65 293.126 137.493L292.968 137.299L293.114 137.469L292.956 137.263C292.896 137.149 292.803 137.056 292.689 136.996C292.592 136.923 292.507 136.839 292.41 136.778C292.073 136.573 291.704 136.425 291.319 136.341C290.614 136.158 289.888 136.064 289.16 136.062C288.445 136.07 287.732 136.127 287.025 136.232C286.369 136.308 285.741 136.541 285.194 136.911C284.992 137.037 284.832 137.218 284.733 137.434C284.634 137.65 284.6 137.89 284.636 138.124C284.66 138.355 284.755 138.573 284.907 138.748C285.058 138.924 285.26 139.049 285.485 139.107V139.022Z" fill="#223A7A"/>
<path d="M272.095 135.662L271.609 135.419C271.464 135.347 271.076 135.14 271.367 135.31L271.039 135.128C270.555 134.895 270.047 134.716 269.523 134.595C268.374 134.308 267.184 134.226 266.006 134.352C264.778 134.45 263.588 134.823 262.525 135.444C262.366 135.523 262.219 135.626 262.088 135.747L261.834 136.074L261.906 135.965C261.738 136.079 261.602 136.233 261.508 136.413C261.415 136.593 261.369 136.793 261.373 136.996C261.371 137.182 261.421 137.364 261.518 137.523C261.614 137.682 261.753 137.81 261.919 137.894C262.11 137.978 262.316 138.021 262.525 138.021C262.734 138.021 262.94 137.978 263.131 137.894H262.501C262.813 137.961 263.135 137.961 263.447 137.894C263.447 137.894 263.786 137.809 263.568 137.894C263.35 137.979 263.908 137.894 263.968 137.894C264.029 137.894 264.417 137.894 263.968 137.894H264.187H264.757C265.594 137.833 266.418 137.797 267.182 137.76C267.947 137.724 268.735 137.76 269.511 137.76C269.839 137.76 270.166 137.76 270.494 137.76C270.821 137.76 270.603 137.76 270.494 137.76H270.712L271.112 137.894C271.384 137.971 271.675 137.944 271.928 137.818C272.181 137.693 272.379 137.477 272.483 137.215C272.583 136.955 272.591 136.668 272.505 136.403C272.419 136.138 272.244 135.91 272.01 135.759L272.095 135.662Z" fill="#223A7A"/>
<path d="M278.05 170.557C279.296 168.25 281.301 166.446 283.726 165.451C281.616 165.232 271.694 164.31 269.172 165.742C266.37 167.331 269.693 173.722 275.491 174.05C276.059 174.081 276.628 174.048 277.189 173.953C277.233 172.773 277.526 171.615 278.05 170.557V170.557Z" fill="#223A7A"/>
<path d="M232.191 157.082C232.191 157.082 233.198 160.975 238.971 165.487C243.347 168.657 248.092 171.284 253.101 173.31L253.768 170.387C253.768 170.387 245.121 166.615 241.106 162.479C237.091 158.343 236.582 156.075 236.582 156.075L232.191 157.082Z" fill="#DEE1EB"/>
<path d="M254.775 168.216C256.528 168.112 258.26 168.645 259.651 169.717C261.042 170.789 261.998 172.328 262.343 174.05C262.659 176.476 260.427 179.096 255.212 176.755C248.723 173.844 250.13 168.434 254.775 168.216Z" fill="#223A7A"/>
<path d="M235.83 128.348C235.83 128.348 237.831 113.927 247.498 104.09C265.945 85.3875 281.628 86.5155 281.628 86.5155C281.628 86.5155 281.506 83.8835 275.563 81.8822C270.033 79.9901 267.534 80.9968 267.534 80.9968C267.534 80.9968 252.361 82.2097 239.553 96.4369C226.746 110.664 225.375 128.676 225.375 128.676L235.83 128.348Z" fill="#DEE1EB"/>
<path d="M234.447 126.589C222.319 124.552 215.636 134 215.126 143.57C214.617 153.14 221.554 160.356 230.809 159.629C251.634 157.967 249.256 129.1 234.447 126.589Z" fill="white"/>
<path d="M228.431 150.326C226.905 150.35 225.403 149.948 224.092 149.166C222.781 148.384 221.713 147.253 221.009 145.899C220.198 144.436 219.802 142.779 219.864 141.107C219.926 139.436 220.443 137.813 221.36 136.414C221.391 136.356 221.433 136.306 221.485 136.266C221.536 136.226 221.595 136.197 221.659 136.182C221.722 136.166 221.788 136.164 221.852 136.176C221.916 136.188 221.977 136.214 222.031 136.251C222.084 136.288 222.129 136.336 222.163 136.392C222.196 136.448 222.218 136.51 222.226 136.575C222.233 136.639 222.227 136.705 222.208 136.767C222.188 136.829 222.156 136.887 222.112 136.936C221.295 138.19 220.835 139.643 220.782 141.139C220.728 142.634 221.083 144.117 221.809 145.426C222.448 146.676 223.435 147.714 224.651 148.415C225.867 149.117 227.26 149.452 228.662 149.38C229.967 149.375 231.251 149.048 232.4 148.428C233.549 147.809 234.527 146.915 235.248 145.826C236.096 144.52 236.629 143.035 236.803 141.488C236.978 139.94 236.79 138.373 236.254 136.911C235.753 135.539 234.823 134.364 233.602 133.563C232.38 132.761 230.933 132.374 229.475 132.46C229.356 132.474 229.236 132.441 229.141 132.369C229.046 132.296 228.983 132.19 228.965 132.072C228.957 132.012 228.96 131.951 228.976 131.892C228.992 131.834 229.019 131.779 229.057 131.732C229.094 131.684 229.141 131.645 229.194 131.616C229.247 131.586 229.305 131.568 229.365 131.562C231.028 131.434 232.686 131.856 234.084 132.763C235.483 133.671 236.544 135.013 237.103 136.584C237.68 138.176 237.881 139.88 237.692 141.563C237.502 143.246 236.928 144.862 236.012 146.287C235.214 147.491 234.134 148.481 232.865 149.173C231.597 149.864 230.179 150.235 228.735 150.253L228.431 150.326Z" fill="#818FB3"/>
<path d="M219.65 189.708C219.65 189.708 183.01 198.745 170.214 213.299C157.418 227.854 151.39 299.584 151.136 312.926C150.881 326.268 160.171 331.75 165.69 335.522C171.208 339.295 195.551 346.063 215.126 347.057C234.702 348.052 253.271 347.057 253.271 347.057C253.499 343.375 254.504 339.783 256.218 336.517C259.008 330.707 262.549 329.494 262.549 329.494L245.739 323.43C245.739 323.43 242.804 270.681 238.219 245.138C232.943 215.81 219.65 189.708 219.65 189.708Z" fill="#CEA809"/>
<path d="M280.366 315.037C280.282 315.033 280.2 315.012 280.124 314.976C279.978 314.91 279.864 314.788 279.807 314.638C279.75 314.488 279.755 314.322 279.821 314.176C283.253 306.437 286.807 291.228 288.808 280.566L288.978 279.705C289.584 276.564 290.336 272.658 288.832 270.002C288.068 268.631 286.334 265.648 284.66 262.725C282.986 259.802 281.3 256.939 280.839 256.09C279.954 254.453 282.744 250.086 286.77 244.082C287.862 242.457 288.796 241.05 289.342 240.104C290.785 237.678 289.827 235.35 288.723 232.718L288.347 231.808C287.34 229.382 286.2 226.872 285.097 224.531L283.811 221.583L282.028 217.629C278.53 209.412 274.557 201.406 270.13 193.65C270.087 193.583 270.057 193.508 270.044 193.43C270.031 193.351 270.035 193.271 270.054 193.193C270.073 193.116 270.108 193.043 270.157 192.98C270.205 192.917 270.266 192.864 270.336 192.826C270.475 192.744 270.64 192.72 270.796 192.759C270.952 192.797 271.088 192.895 271.173 193.032C275.6 200.823 279.577 208.861 283.083 217.108L284.854 221.062L286.2 223.985C287.304 226.411 288.456 228.836 289.463 231.347L289.839 232.245C290.967 234.925 292.131 237.703 290.397 240.735C289.827 241.717 288.881 243.161 287.777 244.774C285.679 247.903 281.3 254.477 281.907 255.544C282.355 256.369 283.981 259.183 285.715 262.13C287.45 265.078 289.123 268.001 289.887 269.408C291.61 272.488 290.809 276.685 290.166 279.972L289.997 280.821C289.269 284.702 285.412 304.594 280.924 314.709C280.873 314.812 280.793 314.897 280.694 314.956C280.595 315.014 280.481 315.042 280.366 315.037V315.037Z" fill="#DEDEDE"/>
<path d="M244.611 317.159C244.532 317.163 244.454 317.149 244.381 317.12C244.307 317.091 244.241 317.046 244.187 316.99C241.336 314.115 227.582 290.306 226.551 285.818C225.993 283.392 227.4 277.158 228.759 271.142C229.814 266.485 230.906 261.669 230.602 260.36C230.129 258.407 226.624 255.508 223.216 252.767C219.104 249.407 214.859 245.938 214.035 242.809C213.101 239.255 213.901 217.011 214.435 202.298C214.629 197.01 214.774 192.826 214.774 191.382C214.774 191.221 214.838 191.067 214.952 190.954C215.066 190.84 215.22 190.776 215.381 190.776C215.541 190.779 215.693 190.844 215.806 190.957C215.919 191.07 215.984 191.222 215.987 191.382C215.987 192.898 215.83 197.083 215.648 202.395C215.15 216.15 214.326 239.17 215.211 242.554C215.939 245.295 220.208 248.789 223.98 251.869C227.752 254.95 231.257 257.776 231.779 260.129C232.155 261.706 231.136 266.194 229.947 271.458C228.674 277.061 227.243 283.417 227.74 285.6C228.747 289.991 242.294 313.363 245.048 316.177C245.104 316.233 245.15 316.3 245.18 316.374C245.211 316.448 245.227 316.527 245.227 316.607C245.227 316.688 245.211 316.767 245.18 316.841C245.15 316.915 245.104 316.982 245.048 317.038C244.987 317.088 244.917 317.124 244.842 317.145C244.767 317.166 244.688 317.171 244.611 317.159V317.159Z" fill="#DEDEDE"/>
<path d="M195.272 306.753C195.113 306.732 194.968 306.648 194.871 306.521C194.773 306.394 194.73 306.233 194.75 306.073C195.199 302.92 202.161 240.092 202.476 235.277C202.487 235.116 202.562 234.966 202.684 234.861C202.805 234.755 202.964 234.702 203.125 234.713C203.286 234.724 203.436 234.799 203.541 234.921C203.647 235.042 203.7 235.201 203.689 235.362C203.374 240.213 196.412 303.078 195.951 306.243C195.927 306.4 195.842 306.541 195.715 306.637C195.588 306.732 195.429 306.774 195.272 306.753Z" fill="#DEDEDE"/>
<path d="M245.242 323.842C245.166 323.86 245.087 323.86 245.011 323.842C243.471 323.224 236.655 320.919 228.031 318.008C210.614 312.138 186.794 304.097 182.221 301.731C182.129 301.703 182.046 301.652 181.978 301.584C181.91 301.516 181.859 301.433 181.831 301.341C181.802 301.249 181.796 301.152 181.813 301.057C181.831 300.962 181.871 300.873 181.93 300.797C181.967 300.726 182.018 300.663 182.08 300.612C182.141 300.56 182.213 300.521 182.289 300.498C182.366 300.474 182.447 300.466 182.527 300.474C182.607 300.481 182.684 300.505 182.755 300.543C187.206 302.847 211.985 311.204 228.383 316.735C237.031 319.658 243.859 321.962 245.436 322.593C245.583 322.655 245.701 322.772 245.762 322.92C245.823 323.068 245.824 323.233 245.763 323.382C245.736 323.503 245.671 323.614 245.577 323.696C245.484 323.779 245.366 323.83 245.242 323.842Z" fill="#DEDEDE"/>
<path d="M236.861 348.828C221.542 348.828 191.827 346.063 169.256 338.082C169.117 338.019 169.008 337.907 168.948 337.768C168.888 337.628 168.883 337.472 168.933 337.328C168.983 337.185 169.086 337.066 169.219 336.995C169.353 336.923 169.509 336.904 169.656 336.942C198.17 347.033 238.062 348.755 245.484 347.082C245.564 347.064 245.646 347.062 245.727 347.077C245.807 347.091 245.884 347.121 245.952 347.165C246.021 347.209 246.08 347.266 246.127 347.333C246.174 347.4 246.207 347.475 246.224 347.555C246.242 347.634 246.243 347.717 246.229 347.797C246.215 347.877 246.185 347.954 246.141 348.023C246.097 348.091 246.04 348.151 245.973 348.197C245.906 348.244 245.831 348.277 245.751 348.295C242.811 348.746 239.834 348.924 236.861 348.828V348.828Z" fill="#DEDEDE"/>
<path d="M61.4438 198.175C66.1982 202.359 72.2262 205.039 76.3984 209.879C78.0479 211.783 79.5276 213.809 81.0437 215.798C82.1595 217.253 85.1189 219.667 85.6041 221.498C85.8103 222.299 85.7739 221.207 85.6041 220.407V220.298C85.1917 216.659 84.8885 212.887 84.7551 209.175C84.6217 205.464 84.8642 201.728 84.6338 198.029C84.3063 192.801 82.6689 187.744 78.3997 184.469C76.3135 182.868 73.6331 181.898 71.7046 180.115C69.7762 178.332 70.613 176.476 71.7046 174.62C72.8627 172.936 73.7431 171.077 74.3123 169.114C74.552 166.788 73.9542 164.452 72.6264 162.528C70.14 158.355 64.6215 153.71 59.4062 154.328C55.052 154.85 54.5547 159.871 54.6275 163.377C54.7002 166.882 55.0156 170.169 55.052 173.565C55.0883 176.961 54.494 180.491 54.4455 183.972C54.3606 189.83 57.0896 194.342 61.4438 198.175Z" fill="#FBD107"/>
<path d="M105.653 252.488C106.948 249.354 108.528 246.346 110.371 243.5C112.93 239.558 115.768 235.714 117.49 231.299C119.213 226.884 118.994 221.971 119.164 217.229C119.298 213.736 120.377 210.255 120.05 206.762C119.916 205.088 118.958 202.371 116.787 202.65C115.089 202.868 114.094 204.955 113.439 206.289C112.376 208.657 111.457 211.087 110.686 213.566C110.359 214.524 110.043 215.507 109.631 216.429C109.389 216.962 108.612 218.272 107.897 218.09C106.684 217.787 107.775 212.753 107.957 211.868C108.879 207.38 110.274 203.22 110.468 198.611C110.747 191.94 110.225 183.984 103.688 180.333C101.978 179.375 99.819 178.805 98.1937 180.236C96.5685 181.667 96.144 184.081 95.9014 186.094C95.1737 192.268 96.6291 198.102 98.6061 203.911C100.231 208.702 102.245 213.615 102.317 218.782C102.463 223.706 99.8918 228.084 98.6789 232.742C97.4422 237.225 96.9223 241.875 97.1385 246.52C97.1385 249.528 97.2356 252.512 97.4539 255.52C97.6601 258.273 97.9027 261.039 98.2423 263.792C98.2423 264.35 98.3757 264.932 98.4484 265.502C97.3811 262.955 97.0173 260.02 96.1319 257.461C94.5673 252.888 92.7601 248.425 91.2804 243.84C90.1374 240.018 88.7892 236.261 87.2416 232.584C85.7012 229.164 83.8576 225.549 80.9953 223.039C79.3253 221.49 77.1354 220.625 74.8582 220.613C73.4185 220.729 71.9999 221.031 70.6374 221.511C69.8757 221.775 69.0592 221.84 68.2653 221.7C67.4714 221.56 66.7265 221.219 66.1013 220.71C61.4075 217.071 60.0369 210.655 56.5196 206.095C53.9362 202.699 47.7991 196.901 43.2872 200.612C40.8615 202.577 40.2429 206.374 40.3642 209.285C40.6938 212.893 41.9469 216.356 44.0028 219.339C46.0283 222.59 48.6481 225.501 50.5038 228.849C51.4934 230.706 51.8752 232.827 51.5954 234.913C51.2805 236.966 51.4087 239.063 51.9714 241.062C54.1181 247.127 60.8132 246.29 66.0285 246.448C69.7718 246.522 73.4848 247.135 77.0535 248.267C78.9302 248.847 80.6402 249.869 82.0395 251.247C83.4389 252.625 84.4867 254.319 85.0948 256.187C86.1257 259.05 86.6836 262.252 88.6363 264.677C89.565 265.803 90.7505 266.689 92.093 267.261C94.1306 268.158 100.328 268.547 100.377 267.976C100.715 266.029 101.256 264.123 101.99 262.288C103.094 259.037 104.307 255.738 105.653 252.488Z" fill="#FBD107"/>
<path d="M134.434 251.336C133.901 247.867 133.998 244.058 132.36 240.844C132.295 240.739 132.192 240.663 132.073 240.632C131.953 240.6 131.826 240.615 131.717 240.674C130.505 241.329 130.505 243.234 130.395 244.41C130.226 246.339 130.395 248.279 130.116 250.208C129.705 253.655 128.891 257.042 127.691 260.299C127.083 261.961 126.078 263.448 124.763 264.632C123.448 265.816 121.863 266.66 120.147 267.091C117.779 267.633 115.535 268.621 113.537 270.002C111.837 271.439 110.509 273.266 109.668 275.327C107.242 280.785 106.029 286.898 104.937 292.732C104.173 296.674 103.555 300.616 102.597 304.509C101.55 308.376 100.708 312.295 100.074 316.25C99.9767 316.444 99.8797 316.65 99.7948 316.844C99.5522 317.438 100.474 317.766 100.801 317.269C104.561 311.471 109.158 306.268 115.356 303.066C118.182 301.622 121.942 301.331 124.307 299.063C126.102 297.329 126.344 294.697 126.078 292.356C125.726 289.275 124.246 286.74 122.706 284.108C121.869 282.665 120.862 281.124 121.202 279.366C121.436 278.572 121.829 277.834 122.356 277.196C122.884 276.558 123.535 276.033 124.27 275.654C126.866 274.041 129.922 273.313 132.045 270.972C133.998 268.837 135.162 266.098 135.344 263.21C135.481 259.23 135.176 255.248 134.434 251.336V251.336Z" fill="#FBD107"/>
<path d="M83.0571 271.373C79.7241 267.095 75.7179 263.388 71.1952 260.396C68.7695 258.795 63.1054 255.629 61.9532 260.396C61.2861 263.161 63.9908 265.878 65.7737 267.673C68.4542 270.281 71.547 272.525 73.8029 275.533C71.0133 276.43 68.0903 276.6 65.6524 278.529C62.7779 280.821 61.4802 285.248 64.3425 288.05C65.8178 289.33 67.4937 290.359 69.3032 291.094C71.5591 292.186 73.8514 293.18 76.1559 294.139C81.1408 296.225 86.1863 298.335 90.4313 301.743C94.6764 305.152 98.8365 311.083 99.1761 316.759C99.1761 317.293 99.0063 316.759 99.3338 316.553C99.5036 316.711 100.098 316.432 100.098 316.116C100.114 307.812 98.3994 299.596 95.0645 291.992C91.8925 284.668 87.8618 277.746 83.0571 271.373Z" fill="#FBD107"/>
<path d="M71.5591 193.068C73.4027 196.877 75.319 200.6 77.3566 204.312C79.392 207.827 81.1911 211.473 82.7418 215.228C84.5489 219.922 86.3804 224.543 88.3452 229.2C90.3542 234.029 92.0834 238.97 93.5241 243.997C96.3723 253.845 98.3567 263.922 99.4551 274.114C99.9845 279.279 100.187 284.472 100.062 289.663C99.9523 293.726 99.4915 297.741 99.1155 301.792C98.6268 305.994 98.5131 310.232 98.7759 314.454C99.0791 317.984 99.637 322.168 102.414 324.679C102.524 324.781 102.666 324.84 102.816 324.846C102.965 324.853 103.112 324.806 103.23 324.714C103.348 324.622 103.429 324.491 103.46 324.345C103.491 324.199 103.468 324.046 103.397 323.915C100.146 317.256 100.328 310.003 100.971 302.774C101.311 298.784 101.784 294.818 101.917 290.815C102.075 285.719 101.905 280.619 101.408 275.545C100.373 265.569 98.503 255.698 95.8165 246.035C94.4798 241.095 92.86 236.235 90.965 231.48C89.0729 226.69 86.8898 222.044 85.0583 217.241C81.7472 208.545 76.7017 200.831 72.2262 192.741C71.9957 192.316 71.3893 192.741 71.5834 193.105L71.5591 193.068Z" fill="#003BD5"/>
<path d="M99.54 264.156C100.061 257.824 100.619 251.724 102.754 245.683C103.749 242.869 104.961 240.128 105.92 237.302C106.708 234.974 107.897 231.759 107.29 229.285C107.277 229.223 107.243 229.166 107.193 229.126C107.143 229.086 107.081 229.064 107.017 229.064C106.953 229.064 106.891 229.086 106.842 229.126C106.792 229.166 106.758 229.223 106.744 229.285C106.332 230.704 106.381 232.257 106.089 233.712C105.789 235.125 105.416 236.522 104.974 237.897C104.04 240.82 102.815 243.621 101.76 246.496C99.6356 252.129 98.7303 258.148 99.1033 264.156C99.1033 264.214 99.1263 264.269 99.1673 264.31C99.2082 264.351 99.2637 264.374 99.3216 264.374C99.3795 264.374 99.4351 264.351 99.476 264.31C99.517 264.269 99.54 264.214 99.54 264.156V264.156Z" fill="#003BD5"/>
<path d="M62.8509 227.769C65.3737 233.834 72.9177 234.198 78.4241 235.556C80.3024 236.071 82.0581 236.958 83.5873 238.165C85.1165 239.371 86.388 240.872 87.3266 242.579C89.5233 246.435 91.2305 250.55 92.4085 254.829C92.4085 254.829 92.4934 254.829 92.4812 254.829C90.9409 247.551 88.7456 238.782 81.238 235.423C75.2343 232.718 67.3143 234.076 63.4695 227.587C63.2754 227.26 62.6932 227.478 62.8388 227.842L62.8509 227.769Z" fill="#003BD5"/>
<path d="M95.5618 263.198C95.865 263.598 96.144 264.023 96.4472 264.411C96.5935 264.609 96.7602 264.792 96.9445 264.956C97.1334 265.149 97.3809 265.272 97.648 265.308C97.6745 265.307 97.7003 265.299 97.7231 265.286C97.7458 265.272 97.7647 265.253 97.778 265.23C97.7913 265.207 97.7986 265.181 97.7992 265.154C97.7998 265.128 97.7937 265.101 97.7814 265.078C97.6285 264.898 97.4532 264.739 97.2598 264.605L96.714 264.12C96.3623 263.792 96.047 263.428 95.6952 263.089C95.6346 263.089 95.5012 263.089 95.5618 263.198V263.198Z" fill="#003BD5"/>
<path d="M79.8553 282.446C84.2429 286.026 88.1161 290.193 91.3654 294.83C92.8845 297.048 94.2814 299.348 95.5498 301.719C96.8312 304.317 97.965 306.986 98.9458 309.712C99.0307 309.918 99.3946 309.93 99.3703 309.712C98.7639 303.999 95.1496 299.099 92.2629 294.357C90.7258 291.985 88.9187 289.799 86.8778 287.844C84.8501 285.696 82.6294 283.739 80.2434 281.998C79.9523 281.779 79.5763 282.264 79.8553 282.495V282.446Z" fill="#003BD5"/>
<path d="M114.361 275.727C112.275 276.94 112.215 280.214 112.166 282.313C112.093 286.364 113.088 290.16 111.317 294.017C109.716 297.498 107.157 300.397 105.144 303.635C103.251 306.668 101.396 310.537 101.432 314.176C101.432 314.382 101.76 314.503 101.857 314.285C102.494 312.565 103.02 310.807 103.433 309.021C104.039 307.101 104.904 305.273 106.005 303.587C107.945 300.591 110.322 297.85 111.899 294.624C113.549 291.215 113.306 287.844 113.197 284.156C113.197 281.803 112.894 278.031 114.786 276.285C114.851 276.226 114.892 276.144 114.901 276.056C114.909 275.968 114.884 275.881 114.83 275.81C114.777 275.74 114.699 275.693 114.612 275.677C114.525 275.662 114.436 275.679 114.361 275.727V275.727Z" fill="#003BD5"/>
<path d="M100.413 314.551C91.9959 314.43 75.9861 314.345 75.9861 314.345L79.9522 343.77C80.3729 346.979 81.9459 349.926 84.3781 352.061C86.8103 354.197 89.9358 355.375 93.1724 355.377H107.642C110.873 355.38 113.996 354.21 116.429 352.084C118.863 349.958 120.442 347.021 120.874 343.819L124.828 314.394C124.828 314.394 108.818 314.43 100.413 314.551Z" fill="white"/>
<path d="M506.845 260.469L458.876 355.499L319.021 356.506L362.174 259.135L506.845 260.469Z" fill="#F6F7FA"/>
<path d="M226.2 355.911V348.306H316.728L358.39 256.963H503.206L506.845 260.469H365.4L322.113 355.826C322.113 355.826 226.2 355.656 226.2 355.911Z" fill="#D9DEE8"/>
<path d="M434.206 312.926C432.63 317.657 424.055 321.32 415.055 321.101C406.056 320.883 400.04 316.844 401.617 312.102C403.193 307.359 411.781 303.708 420.78 303.927C429.779 304.145 435.795 308.172 434.206 312.926Z" fill="#D9DEE8"/>
<path d="M322.113 356.433C322.029 356.45 321.943 356.45 321.859 356.433C321.713 356.367 321.599 356.245 321.542 356.095C321.485 355.945 321.49 355.779 321.555 355.632L365.073 259.862H506.845C507.006 259.862 507.16 259.926 507.274 260.04C507.388 260.154 507.452 260.308 507.452 260.469C507.452 260.63 507.388 260.784 507.274 260.898C507.16 261.011 507.006 261.075 506.845 261.075H365.789L322.623 356.081C322.58 356.182 322.509 356.268 322.419 356.33C322.329 356.393 322.223 356.428 322.113 356.433V356.433Z" fill="white"/>
<path d="M219.893 363.104H53.5239V399.988H219.893V363.104Z" fill="#CEA809"/>
<path d="M518.282 363.104H218.947V399.988H518.282V363.104Z" fill="#FBD107"/>
<g style="mix-blend-mode:multiply">
<path d="M219.893 363.104H218.947H53.5239V369.884H218.947H219.893H518.283V363.104H219.893Z" fill="#CEA809"/>
</g>
<path d="M227.17 355.826H45.4946V364.862H227.17V355.826Z" fill="#CEA809"/>
<path d="M525.56 355.826H226.224V364.862H525.56V355.826Z" fill="#FFE150"/>
<path d="M177.891 119.81H119.164C115.527 119.81 112.578 122.758 112.578 126.396V155.711C112.578 159.349 115.527 162.297 119.164 162.297H177.891C181.529 162.297 184.477 159.349 184.477 155.711V126.396C184.477 122.758 181.529 119.81 177.891 119.81Z" fill="white"/>
<path d="M201.215 141.047L179.153 131.744V150.35L201.215 141.047Z" fill="white"/>
<path d="M134.592 145.111C136.836 145.111 138.655 143.291 138.655 141.047C138.655 138.803 136.836 136.984 134.592 136.984C132.348 136.984 130.529 138.803 130.529 141.047C130.529 143.291 132.348 145.111 134.592 145.111Z" fill="#FBD107"/>
<path d="M148.528 145.111C150.772 145.111 152.591 143.291 152.591 141.047C152.591 138.803 150.772 136.984 148.528 136.984C146.284 136.984 144.465 138.803 144.465 141.047C144.465 143.291 146.284 145.111 148.528 145.111Z" fill="#FBD107"/>
<path d="M162.463 145.111C164.707 145.111 166.527 143.291 166.527 141.047C166.527 138.803 164.707 136.984 162.463 136.984C160.219 136.984 158.4 138.803 158.4 141.047C158.4 143.291 160.219 145.111 162.463 145.111Z" fill="#FBD107"/>
<path d="M476.899 29.6067H341.313C337.131 29.6067 333.121 31.2679 330.164 34.2249C327.207 37.1819 325.546 41.1925 325.546 45.3743V109.658C325.546 113.839 327.207 117.85 330.164 120.807C333.121 123.764 337.131 125.425 341.313 125.425H353.442C353.781 131.259 352.944 139.98 348.081 151.029C360.161 145.54 370.376 136.64 377.468 125.425H476.924C481.105 125.425 485.116 123.764 488.073 120.807C491.03 117.85 492.691 113.839 492.691 109.658V45.3743C492.691 43.3016 492.282 41.2493 491.488 39.3347C490.694 37.4201 489.531 35.6808 488.064 34.2163C486.598 32.7519 484.856 31.5909 482.941 30.8C481.025 30.009 478.972 29.6035 476.899 29.6067V29.6067Z" fill="#FBD107"/>
<path d="M419.058 60.2565H351.804C350.919 60.2565 350.069 59.9055 349.442 59.2803C348.814 58.6552 348.46 57.8068 348.457 56.9211V56.9211C348.457 56.0332 348.81 55.1818 349.437 54.554C350.065 53.9262 350.916 53.5735 351.804 53.5735H419.058C419.946 53.5735 420.797 53.9262 421.425 54.554C422.053 55.1818 422.405 56.0332 422.405 56.9211V56.9211C422.402 57.8068 422.048 58.6552 421.421 59.2803C420.793 59.9055 419.944 60.2565 419.058 60.2565Z" fill="white"/>
<path d="M467.281 79.7476H350.519C349.975 79.7476 349.454 79.5317 349.069 79.1472C348.685 78.7628 348.469 78.2415 348.469 77.6978C348.469 77.1542 348.685 76.6328 349.069 76.2484C349.454 75.864 349.975 75.648 350.519 75.648H467.294C467.566 75.6432 467.836 75.6926 468.089 75.7935C468.342 75.8943 468.572 76.0446 468.767 76.2354C468.961 76.4262 469.115 76.6538 469.22 76.9049C469.326 77.156 469.38 77.4255 469.38 77.6978V77.6978C469.38 77.9711 469.325 78.2417 469.219 78.4936C469.113 78.7455 468.958 78.9737 468.762 79.1647C468.567 79.3557 468.335 79.5056 468.081 79.6057C467.826 79.7058 467.555 79.7541 467.281 79.7476V79.7476Z" fill="#FFF2B6"/>
<path d="M467.281 91.1246H350.519C349.975 91.1246 349.454 90.9086 349.069 90.5242C348.685 90.1398 348.469 89.6184 348.469 89.0748C348.469 88.5311 348.685 88.0098 349.069 87.6253C349.454 87.2409 349.975 87.025 350.519 87.025H467.294C467.566 87.0201 467.836 87.0696 468.089 87.1704C468.342 87.2713 468.572 87.4215 468.767 87.6123C468.961 87.8032 469.115 88.0308 469.22 88.2819C469.326 88.533 469.38 88.8025 469.38 89.0748C469.38 89.3481 469.325 89.6187 469.219 89.8706C469.113 90.1225 468.958 90.3506 468.762 90.5416C468.567 90.7326 468.335 90.8826 468.081 90.9827C467.826 91.0828 467.555 91.131 467.281 91.1246V91.1246Z" fill="#FFF2B6"/>
<path d="M441.811 103.253H350.519C349.975 103.253 349.454 103.038 349.069 102.653C348.685 102.269 348.469 101.747 348.469 101.204C348.469 100.66 348.685 100.139 349.069 99.7543C349.454 99.3698 349.975 99.1539 350.519 99.1539H441.823C442.096 99.1491 442.366 99.1985 442.619 99.2993C442.872 99.4002 443.102 99.5504 443.296 99.7412C443.491 99.9321 443.645 100.16 443.75 100.411C443.855 100.662 443.91 100.931 443.91 101.204V101.204C443.91 101.477 443.855 101.748 443.749 101.999C443.643 102.251 443.488 102.48 443.292 102.671C443.097 102.862 442.865 103.011 442.611 103.112C442.356 103.212 442.084 103.26 441.811 103.253Z" fill="#FFF2B6"/>
<path d="M466.36 60.2563H434.279C433.393 60.2563 432.544 59.9053 431.916 59.2801C431.289 58.6549 430.935 57.8066 430.932 56.9209V56.9209C430.932 56.033 431.284 55.1815 431.912 54.5538C432.54 53.926 433.391 53.5733 434.279 53.5733H466.36C466.8 53.5717 467.236 53.6572 467.642 53.8248C468.049 53.9925 468.419 54.239 468.73 54.5502C469.041 54.8613 469.288 55.231 469.455 55.6379C469.623 56.0448 469.709 56.4808 469.707 56.9209V56.9209C469.707 57.3599 469.62 57.7946 469.452 58.2001C469.284 58.6056 469.037 58.9738 468.726 59.2837C468.415 59.5936 468.046 59.839 467.64 60.0059C467.234 60.1728 466.799 60.2579 466.36 60.2563V60.2563Z" fill="white"/>
<path d="M385.498 178.453H349.075C347.736 178.453 346.65 179.539 346.65 180.879V205.767C346.65 207.107 347.736 208.193 349.075 208.193H385.498C386.837 208.193 387.924 207.107 387.924 205.767V180.879C387.924 179.539 386.837 178.453 385.498 178.453Z" fill="white"/>
<path d="M367.499 197.774C367.285 197.773 367.079 197.696 366.917 197.556L347.086 181.182C346.995 181.102 346.92 181.005 346.866 180.897C346.811 180.788 346.779 180.67 346.771 180.549C346.762 180.428 346.778 180.306 346.816 180.191C346.855 180.076 346.916 179.97 346.995 179.878C347.075 179.787 347.172 179.712 347.281 179.657C347.389 179.603 347.507 179.571 347.628 179.563C347.75 179.554 347.871 179.57 347.986 179.608C348.101 179.647 348.208 179.707 348.299 179.787L367.499 195.664L386.238 179.363C386.419 179.202 386.658 179.12 386.9 179.135C387.142 179.149 387.369 179.26 387.529 179.441C387.69 179.623 387.772 179.861 387.757 180.104C387.743 180.346 387.632 180.572 387.451 180.733L368.13 197.544C367.955 197.696 367.73 197.778 367.499 197.774V197.774Z" fill="#6F7FA9"/>
<path d="M347.717 207.514C347.539 207.514 347.364 207.461 347.215 207.363C347.067 207.264 346.95 207.124 346.88 206.96C346.811 206.796 346.791 206.615 346.823 206.439C346.855 206.264 346.938 206.102 347.062 205.973L360.925 191.419C361.009 191.333 361.109 191.265 361.219 191.218C361.329 191.171 361.448 191.147 361.568 191.147C361.688 191.147 361.806 191.171 361.917 191.218C362.027 191.265 362.127 191.333 362.211 191.419C362.381 191.589 362.477 191.82 362.477 192.061C362.477 192.303 362.381 192.534 362.211 192.704L348.348 207.259C348.179 207.423 347.952 207.515 347.717 207.514V207.514Z" fill="#6F7FA9"/>
<path d="M386.905 206.98C386.785 206.983 386.666 206.96 386.555 206.914C386.444 206.869 386.345 206.8 386.262 206.713L372.411 192.85C372.25 192.677 372.163 192.449 372.167 192.214C372.171 191.978 372.267 191.753 372.433 191.586C372.6 191.42 372.825 191.324 373.06 191.32C373.296 191.316 373.524 191.404 373.697 191.564L387.511 205.415C387.681 205.586 387.777 205.817 387.777 206.058C387.777 206.299 387.681 206.531 387.511 206.701C387.352 206.869 387.135 206.969 386.905 206.98V206.98Z" fill="#6F7FA9"/>
<path d="M389.828 189.696C396.546 189.696 401.993 184.25 401.993 177.531C401.993 170.812 396.546 165.366 389.828 165.366C383.109 165.366 377.663 170.812 377.663 177.531C377.663 184.25 383.109 189.696 389.828 189.696Z" fill="#FF5F42"/>
<path d="M385.897 175.859L385.873 175.583C386.177 175.719 386.441 175.895 386.665 176.111C386.889 176.327 387.061 176.563 387.181 176.819C387.301 177.075 387.361 177.339 387.361 177.611C387.361 178.067 387.233 178.487 386.977 178.871C386.729 179.247 386.393 179.551 385.969 179.783C385.545 180.007 385.073 180.119 384.553 180.119C384.033 180.119 383.561 180.007 383.137 179.783C382.713 179.551 382.373 179.247 382.117 178.871C381.869 178.487 381.745 178.067 381.745 177.611C381.745 177.243 381.821 176.927 381.973 176.663C382.133 176.391 382.329 176.163 382.561 175.979C382.801 175.795 383.037 175.643 383.269 175.523L383.173 175.859C382.973 175.779 382.777 175.667 382.585 175.523C382.401 175.371 382.249 175.179 382.129 174.947C382.009 174.715 381.949 174.443 381.949 174.131C381.949 173.683 382.065 173.279 382.297 172.919C382.529 172.551 382.841 172.259 383.233 172.043C383.633 171.827 384.073 171.719 384.553 171.719C385.041 171.719 385.477 171.827 385.861 172.043C386.253 172.259 386.565 172.551 386.797 172.919C387.029 173.279 387.145 173.683 387.145 174.131C387.145 174.475 387.077 174.763 386.941 174.995C386.805 175.227 386.641 175.411 386.449 175.547C386.257 175.683 386.073 175.787 385.897 175.859ZM383.389 174.155C383.389 174.371 383.437 174.563 383.533 174.731C383.637 174.899 383.777 175.035 383.953 175.139C384.129 175.235 384.329 175.283 384.553 175.283C384.777 175.283 384.973 175.235 385.141 175.139C385.317 175.035 385.453 174.899 385.549 174.731C385.653 174.563 385.705 174.371 385.705 174.155C385.705 173.835 385.593 173.571 385.369 173.363C385.153 173.147 384.881 173.039 384.553 173.039C384.217 173.039 383.937 173.147 383.713 173.363C383.497 173.571 383.389 173.835 383.389 174.155ZM384.553 178.799C384.937 178.799 385.261 178.683 385.525 178.451C385.789 178.211 385.921 177.923 385.921 177.587C385.921 177.355 385.861 177.147 385.741 176.963C385.621 176.779 385.457 176.635 385.249 176.531C385.041 176.419 384.809 176.363 384.553 176.363C384.297 176.363 384.065 176.419 383.857 176.531C383.649 176.635 383.485 176.779 383.365 176.963C383.245 177.147 383.185 177.355 383.185 177.587C383.185 177.923 383.317 178.211 383.581 178.451C383.845 178.683 384.169 178.799 384.553 178.799ZM390.731 180.239C390.435 180.239 390.119 180.195 389.783 180.107C389.447 180.011 389.171 179.875 388.955 179.699C388.851 179.611 388.767 179.499 388.703 179.363C388.647 179.219 388.619 179.083 388.619 178.955C388.619 178.819 388.675 178.691 388.787 178.571C388.907 178.451 389.075 178.391 389.291 178.391C389.435 178.391 389.615 178.467 389.831 178.619C389.959 178.699 390.099 178.771 390.251 178.835C390.403 178.899 390.559 178.931 390.719 178.931C391.103 178.931 391.435 178.863 391.715 178.727C391.995 178.583 392.211 178.387 392.363 178.139C392.515 177.891 392.591 177.599 392.591 177.263C392.591 176.959 392.519 176.699 392.375 176.483C392.239 176.267 392.055 176.099 391.823 175.979C391.599 175.859 391.355 175.799 391.091 175.799C390.843 175.799 390.627 175.839 390.443 175.919C390.259 175.999 390.091 176.083 389.939 176.171C389.787 176.251 389.635 176.291 389.483 176.291C389.219 176.291 389.023 176.235 388.895 176.123C388.767 176.003 388.687 175.863 388.655 175.703C388.623 175.543 388.615 175.399 388.631 175.271L389.003 172.355C389.035 172.187 389.115 172.051 389.243 171.947C389.379 171.835 389.539 171.779 389.723 171.779H393.191C393.383 171.779 393.543 171.843 393.671 171.971C393.799 172.099 393.863 172.259 393.863 172.451C393.863 172.635 393.799 172.791 393.671 172.919C393.543 173.039 393.383 173.099 393.191 173.099H390.095L390.227 172.991L389.903 175.427L389.747 174.971C389.795 174.891 389.899 174.815 390.059 174.743C390.219 174.671 390.403 174.611 390.611 174.563C390.819 174.507 391.023 174.479 391.223 174.479C391.759 174.479 392.239 174.603 392.663 174.851C393.087 175.091 393.419 175.423 393.659 175.847C393.907 176.263 394.031 176.735 394.031 177.263C394.031 177.863 393.895 178.387 393.623 178.835C393.351 179.283 392.967 179.631 392.471 179.879C391.983 180.119 391.403 180.239 390.731 180.239Z" fill="white"/>
<path d="M512.061 152.23H440.962C438.283 152.23 436.111 154.402 436.111 157.082V168.204C436.111 170.883 438.283 173.056 440.962 173.056H512.061C514.74 173.056 516.912 170.883 516.912 168.204V157.082C516.912 154.402 514.74 152.23 512.061 152.23Z" fill="#FBD107"/>
<path d="M446.093 168.107C445.948 168.11 445.805 168.081 445.673 168.022C445.541 167.964 445.423 167.877 445.329 167.767C445.137 167.523 445.045 167.215 445.074 166.906L445.377 164.213C445.377 164.141 445.377 164.104 445.377 164.08C445.377 164.056 445.28 164.08 445.207 164.08L442.988 165.681C442.871 165.778 442.735 165.848 442.588 165.886C442.441 165.924 442.288 165.928 442.139 165.899C441.987 165.869 441.845 165.805 441.721 165.713C441.597 165.621 441.495 165.502 441.423 165.366C441.324 165.231 441.261 165.074 441.24 164.908C441.219 164.743 441.24 164.575 441.302 164.42C441.359 164.283 441.445 164.16 441.554 164.06C441.663 163.959 441.792 163.883 441.932 163.837L444.419 162.709C444.492 162.709 444.528 162.673 444.528 162.6C444.528 162.6 444.528 162.528 444.419 162.503L441.932 161.375C441.788 161.321 441.658 161.234 441.551 161.123C441.444 161.012 441.363 160.879 441.314 160.732C441.272 160.585 441.26 160.431 441.278 160.279C441.297 160.126 441.346 159.98 441.423 159.847C441.495 159.711 441.597 159.592 441.721 159.5C441.845 159.407 441.987 159.344 442.139 159.313C442.285 159.283 442.436 159.284 442.582 159.315C442.728 159.347 442.866 159.408 442.988 159.495L445.207 161.133C445.28 161.133 445.328 161.193 445.377 161.133C445.426 161.072 445.438 161.133 445.377 160.999L445.074 158.307C445.056 158.152 445.07 157.996 445.116 157.848C445.162 157.7 445.239 157.563 445.341 157.446C445.446 157.333 445.574 157.245 445.716 157.187C445.859 157.128 446.012 157.1 446.165 157.106C446.317 157.103 446.468 157.134 446.606 157.197C446.744 157.26 446.867 157.353 446.964 157.469C447.062 157.586 447.132 157.722 447.17 157.869C447.208 158.016 447.213 158.17 447.184 158.319L446.881 161.011C446.881 161.084 446.881 161.121 446.881 161.145C446.881 161.169 446.978 161.145 447.051 161.145L449.27 159.544C449.389 159.446 449.527 159.375 449.676 159.337C449.825 159.299 449.981 159.295 450.131 159.325C450.283 159.352 450.426 159.414 450.548 159.506C450.671 159.599 450.769 159.72 450.835 159.859C450.931 159.995 450.992 160.152 451.013 160.317C451.034 160.482 451.015 160.65 450.956 160.805C450.897 160.941 450.811 161.062 450.702 161.163C450.593 161.263 450.465 161.339 450.326 161.387L447.827 162.515C447.766 162.515 447.73 162.576 447.73 162.612C447.73 162.649 447.73 162.697 447.827 162.722L450.326 163.85C450.47 163.906 450.601 163.992 450.71 164.103C450.819 164.214 450.903 164.347 450.956 164.492C451.006 164.639 451.02 164.796 450.999 164.949C450.978 165.103 450.922 165.25 450.835 165.378C450.769 165.517 450.671 165.638 450.548 165.731C450.426 165.823 450.283 165.885 450.131 165.911C449.983 165.942 449.83 165.941 449.682 165.91C449.534 165.879 449.394 165.817 449.27 165.73L447.051 164.092C446.978 164.092 446.917 164.032 446.881 164.092C446.845 164.153 446.82 164.153 446.881 164.226L447.184 166.918C447.212 167.072 447.204 167.23 447.16 167.379C447.115 167.529 447.036 167.666 446.929 167.779C446.819 167.888 446.689 167.973 446.545 168.029C446.401 168.085 446.247 168.112 446.093 168.107V168.107Z" fill="white"/>
<path d="M460.792 168.107C460.648 168.11 460.505 168.081 460.372 168.022C460.24 167.964 460.123 167.876 460.028 167.767C459.836 167.523 459.745 167.215 459.774 166.906L460.077 164.213C460.077 164.141 460.077 164.104 460.077 164.08C460.049 164.064 460.018 164.056 459.986 164.056C459.954 164.056 459.923 164.064 459.895 164.08L457.687 165.681C457.569 165.779 457.43 165.849 457.281 165.886C457.132 165.924 456.977 165.929 456.826 165.899C456.676 165.867 456.534 165.803 456.41 165.711C456.287 165.619 456.184 165.501 456.111 165.366C456.015 165.23 455.954 165.073 455.933 164.908C455.911 164.743 455.931 164.575 455.989 164.42C456.049 164.284 456.135 164.162 456.244 164.062C456.352 163.962 456.48 163.885 456.62 163.837L459.119 162.709C459.179 162.709 459.216 162.649 459.216 162.6C459.216 162.552 459.216 162.527 459.119 162.503L456.62 161.375C456.476 161.322 456.347 161.236 456.242 161.125C456.136 161.013 456.058 160.879 456.014 160.732C455.967 160.586 455.951 160.432 455.968 160.279C455.985 160.127 456.033 159.979 456.111 159.847C456.184 159.712 456.287 159.594 456.41 159.502C456.534 159.41 456.676 159.345 456.826 159.313C456.975 159.284 457.128 159.284 457.276 159.316C457.424 159.347 457.564 159.408 457.687 159.495L459.895 161.133C459.923 161.149 459.954 161.157 459.986 161.157C460.018 161.157 460.049 161.149 460.077 161.133C460.077 161.133 460.077 161.133 460.077 160.999L459.774 158.307C459.758 158.152 459.775 157.995 459.823 157.847C459.871 157.699 459.949 157.562 460.053 157.445C460.157 157.338 460.281 157.253 460.419 157.195C460.556 157.137 460.704 157.107 460.853 157.107C461.002 157.107 461.15 157.137 461.288 157.195C461.425 157.253 461.55 157.338 461.654 157.445C461.755 157.562 461.828 157.7 461.868 157.849C461.908 157.999 461.913 158.155 461.884 158.307L461.581 160.999C461.581 161.072 461.581 161.108 461.581 161.133C461.581 161.157 461.678 161.133 461.751 161.133L463.97 159.532C464.09 159.432 464.231 159.361 464.382 159.323C464.533 159.286 464.691 159.282 464.843 159.313C464.994 159.342 465.136 159.405 465.258 159.498C465.38 159.59 465.479 159.71 465.547 159.847C465.642 159.983 465.701 160.141 465.72 160.306C465.739 160.471 465.717 160.639 465.656 160.793C465.599 160.93 465.513 161.052 465.404 161.153C465.295 161.253 465.166 161.329 465.025 161.375L462.539 162.503C462.466 162.503 462.43 162.564 462.43 162.6C462.43 162.637 462.43 162.685 462.539 162.709L465.025 163.837C465.172 163.89 465.305 163.975 465.415 164.086C465.524 164.198 465.606 164.332 465.656 164.48C465.71 164.626 465.728 164.782 465.709 164.936C465.69 165.09 465.635 165.238 465.547 165.366C465.479 165.503 465.38 165.622 465.258 165.715C465.136 165.807 464.994 165.87 464.843 165.899C464.693 165.931 464.538 165.931 464.388 165.899C464.238 165.868 464.095 165.806 463.97 165.717L461.751 164.08C461.678 164.08 461.629 164.019 461.581 164.08C461.532 164.141 461.52 164.141 461.581 164.213L461.884 166.906C461.912 167.059 461.904 167.217 461.859 167.367C461.815 167.517 461.736 167.654 461.629 167.767C461.522 167.88 461.391 167.968 461.247 168.026C461.103 168.085 460.948 168.112 460.792 168.107V168.107Z" fill="white"/>
<path d="M475.505 168.107C475.36 168.11 475.217 168.081 475.085 168.022C474.953 167.964 474.835 167.877 474.741 167.767C474.544 167.525 474.449 167.217 474.474 166.906L474.789 164.213C474.789 164.141 474.789 164.104 474.789 164.08C474.789 164.056 474.692 164.08 474.619 164.08L472.4 165.681C472.283 165.778 472.146 165.847 472 165.885C471.853 165.923 471.7 165.928 471.551 165.899C471.399 165.869 471.257 165.805 471.133 165.713C471.009 165.621 470.908 165.502 470.835 165.366C470.736 165.231 470.673 165.074 470.652 164.908C470.631 164.743 470.652 164.575 470.714 164.42C470.771 164.283 470.857 164.16 470.966 164.06C471.075 163.959 471.204 163.883 471.345 163.837L473.831 162.709C473.904 162.709 473.94 162.673 473.94 162.6C473.94 162.6 473.94 162.528 473.831 162.503L471.345 161.375C471.199 161.322 471.068 161.237 470.961 161.125C470.854 161.014 470.774 160.88 470.726 160.732C470.681 160.586 470.667 160.431 470.686 160.278C470.705 160.125 470.756 159.979 470.835 159.847C470.908 159.711 471.009 159.592 471.133 159.5C471.257 159.407 471.399 159.344 471.551 159.313C471.697 159.284 471.848 159.285 471.994 159.316C472.14 159.348 472.278 159.409 472.4 159.495L474.619 161.133C474.692 161.133 474.741 161.193 474.789 161.133C474.838 161.072 474.85 161.133 474.789 160.999L474.474 158.307C474.452 157.994 474.552 157.686 474.753 157.446C474.858 157.333 474.986 157.245 475.128 157.187C475.271 157.128 475.424 157.1 475.577 157.106C475.729 157.103 475.88 157.134 476.018 157.197C476.156 157.26 476.279 157.353 476.376 157.469C476.474 157.586 476.544 157.722 476.582 157.869C476.621 158.016 476.625 158.17 476.596 158.319L476.293 161.011C476.293 161.084 476.293 161.121 476.293 161.145C476.321 161.161 476.352 161.169 476.384 161.169C476.416 161.169 476.447 161.161 476.475 161.145L478.695 159.544C478.813 159.446 478.951 159.375 479.1 159.337C479.249 159.299 479.405 159.295 479.556 159.325C479.707 159.352 479.85 159.414 479.973 159.506C480.095 159.599 480.193 159.72 480.259 159.859C480.355 159.995 480.416 160.152 480.437 160.317C480.458 160.482 480.439 160.65 480.38 160.805C480.32 160.939 480.232 161.06 480.124 161.16C480.016 161.26 479.888 161.337 479.75 161.387L477.251 162.515C477.191 162.515 477.154 162.576 477.154 162.612C477.154 162.649 477.154 162.697 477.251 162.722L479.75 163.85C479.895 163.906 480.026 163.992 480.134 164.103C480.243 164.214 480.327 164.347 480.38 164.492C480.43 164.639 480.444 164.796 480.423 164.949C480.402 165.103 480.346 165.25 480.259 165.378C480.193 165.517 480.095 165.638 479.973 165.731C479.85 165.823 479.707 165.885 479.556 165.911C479.407 165.942 479.254 165.941 479.106 165.91C478.958 165.879 478.818 165.817 478.695 165.73L476.475 164.092C476.447 164.076 476.416 164.068 476.384 164.068C476.352 164.068 476.321 164.076 476.293 164.092C476.293 164.092 476.293 164.153 476.293 164.226L476.596 166.918C476.624 167.072 476.616 167.23 476.572 167.379C476.527 167.529 476.449 167.666 476.342 167.779C476.232 167.888 476.101 167.973 475.957 168.029C475.813 168.085 475.659 168.112 475.505 168.107V168.107Z" fill="white"/>
<path d="M490.205 168.107C490.06 168.11 489.917 168.081 489.785 168.022C489.653 167.964 489.535 167.877 489.441 167.767C489.249 167.523 489.157 167.215 489.186 166.906L489.489 164.214C489.489 164.141 489.489 164.104 489.489 164.08C489.489 164.056 489.392 164.08 489.319 164.08L487.1 165.681C486.983 165.778 486.847 165.848 486.7 165.886C486.553 165.924 486.4 165.929 486.251 165.899C486.1 165.867 485.958 165.803 485.834 165.711C485.711 165.619 485.609 165.501 485.535 165.366C485.439 165.23 485.378 165.073 485.357 164.908C485.336 164.743 485.355 164.575 485.414 164.42C485.473 164.284 485.559 164.163 485.668 164.062C485.777 163.962 485.905 163.886 486.044 163.838L488.543 162.71C488.604 162.71 488.64 162.649 488.64 162.6C488.64 162.552 488.64 162.528 488.543 162.503L486.044 161.375C485.901 161.322 485.771 161.237 485.666 161.125C485.561 161.013 485.483 160.879 485.438 160.733C485.391 160.586 485.375 160.432 485.392 160.279C485.409 160.127 485.458 159.98 485.535 159.847C485.609 159.712 485.711 159.594 485.834 159.502C485.958 159.41 486.1 159.345 486.251 159.313C486.397 159.283 486.548 159.284 486.694 159.315C486.84 159.347 486.978 159.408 487.1 159.495L489.319 161.133C489.392 161.133 489.453 161.193 489.489 161.133C489.525 161.072 489.55 161.133 489.489 160.999L489.186 158.307C489.161 157.996 489.256 157.688 489.453 157.446C489.558 157.334 489.687 157.246 489.829 157.188C489.971 157.129 490.124 157.101 490.277 157.106C490.425 157.104 490.572 157.133 490.708 157.192C490.843 157.25 490.965 157.337 491.066 157.446C491.167 157.562 491.24 157.7 491.28 157.85C491.32 157.999 491.326 158.155 491.296 158.307L490.993 160.999C490.993 161.072 490.993 161.109 490.993 161.133C490.993 161.157 491.09 161.133 491.163 161.133L493.382 159.532C493.502 159.432 493.643 159.361 493.794 159.324C493.945 159.286 494.103 159.282 494.256 159.313C494.405 159.341 494.545 159.404 494.666 159.497C494.786 159.59 494.882 159.71 494.947 159.847C495.046 159.982 495.109 160.139 495.13 160.304C495.151 160.47 495.13 160.638 495.068 160.793C495.011 160.93 494.925 161.053 494.816 161.153C494.707 161.253 494.578 161.329 494.438 161.375L491.951 162.503C491.878 162.503 491.842 162.564 491.842 162.6C491.842 162.637 491.842 162.685 491.951 162.71L494.438 163.838C494.583 163.892 494.715 163.978 494.824 164.089C494.933 164.2 495.016 164.334 495.068 164.48C495.12 164.627 495.137 164.784 495.116 164.938C495.094 165.092 495.037 165.239 494.947 165.366C494.882 165.503 494.786 165.623 494.666 165.716C494.545 165.809 494.405 165.872 494.256 165.899C494.105 165.931 493.95 165.931 493.8 165.9C493.65 165.868 493.508 165.806 493.382 165.718L491.211 164.116C491.139 164.116 491.09 164.056 491.041 164.116C490.993 164.177 490.981 164.177 491.041 164.25L491.345 166.943C491.373 167.096 491.364 167.254 491.32 167.403C491.276 167.553 491.197 167.69 491.09 167.804C490.972 167.914 490.832 167.998 490.68 168.05C490.527 168.103 490.365 168.122 490.205 168.107V168.107Z" fill="white"/>
<path d="M504.917 168.107C504.772 168.111 504.628 168.082 504.496 168.024C504.364 167.965 504.247 167.877 504.153 167.767C503.956 167.525 503.861 167.217 503.886 166.906L504.201 164.213C504.201 164.141 504.201 164.104 504.201 164.08C504.176 164.064 504.146 164.055 504.116 164.055C504.086 164.055 504.057 164.064 504.031 164.08L501.812 165.681C501.695 165.778 501.558 165.847 501.412 165.885C501.265 165.923 501.112 165.928 500.963 165.899C500.81 165.869 500.666 165.805 500.54 165.713C500.414 165.621 500.31 165.502 500.235 165.366C500.14 165.229 500.081 165.071 500.062 164.906C500.043 164.741 500.065 164.574 500.126 164.42C500.183 164.283 500.269 164.16 500.378 164.06C500.487 163.959 500.616 163.883 500.757 163.837L503.243 162.709C503.316 162.709 503.352 162.673 503.352 162.6C503.352 162.6 503.352 162.528 503.243 162.503L500.757 161.375C500.61 161.325 500.478 161.24 500.37 161.128C500.263 161.016 500.183 160.881 500.138 160.732C500.094 160.586 500.08 160.432 500.097 160.28C500.113 160.128 500.16 159.981 500.235 159.847C500.31 159.71 500.414 159.592 500.54 159.499C500.666 159.407 500.81 159.344 500.963 159.313C501.109 159.284 501.26 159.285 501.406 159.316C501.552 159.348 501.69 159.409 501.812 159.495L504.031 161.133C504.057 161.149 504.086 161.158 504.116 161.158C504.146 161.158 504.176 161.149 504.201 161.133C504.201 161.133 504.262 161.133 504.201 160.999L503.886 158.307C503.87 158.152 503.887 157.995 503.935 157.847C503.983 157.699 504.061 157.562 504.165 157.446C504.27 157.333 504.398 157.245 504.54 157.187C504.683 157.128 504.836 157.1 504.99 157.106C505.141 157.103 505.292 157.134 505.43 157.197C505.568 157.26 505.691 157.353 505.788 157.469C505.886 157.586 505.956 157.722 505.994 157.869C506.033 158.016 506.037 158.17 506.008 158.319L505.766 161.072C505.766 161.145 505.766 161.181 505.766 161.205C505.793 161.221 505.825 161.23 505.857 161.23C505.889 161.23 505.92 161.221 505.948 161.205L508.155 159.604C508.276 159.507 508.417 159.436 508.568 159.399C508.718 159.361 508.876 159.357 509.028 159.386C509.179 159.413 509.322 159.476 509.444 159.568C509.567 159.661 509.665 159.782 509.732 159.92C509.828 160.056 509.889 160.213 509.91 160.378C509.931 160.543 509.912 160.71 509.853 160.866C509.792 161 509.705 161.121 509.597 161.221C509.488 161.321 509.361 161.398 509.222 161.448L506.724 162.576C506.663 162.576 506.627 162.637 506.627 162.673C506.627 162.709 506.627 162.758 506.724 162.782L509.222 163.91C509.367 163.966 509.498 164.053 509.607 164.164C509.716 164.274 509.8 164.407 509.853 164.553C509.902 164.7 509.917 164.856 509.896 165.01C509.875 165.164 509.819 165.31 509.732 165.438C509.665 165.577 509.567 165.697 509.444 165.79C509.322 165.883 509.179 165.945 509.028 165.972C508.878 166.002 508.723 166.001 508.573 165.97C508.423 165.939 508.281 165.878 508.155 165.79L505.948 164.153C505.92 164.137 505.889 164.128 505.857 164.128C505.825 164.128 505.793 164.137 505.766 164.153C505.766 164.153 505.766 164.213 505.766 164.286L506.069 166.979C506.097 167.132 506.089 167.29 506.044 167.44C506 167.589 505.921 167.727 505.814 167.84C505.692 167.945 505.549 168.024 505.394 168.07C505.239 168.116 505.077 168.128 504.917 168.107V168.107Z" fill="#FFEA87"/>
</g>
<defs>
<clipPath id="clip0_166_189">
<rect width="532" height="400" fill="white"/>
</clipPath>
</defs>
</svg>
